<mxfile host="app.diagrams.net" modified="2023-06-28T07:36:06.162Z" agent="Mozilla/5.0 (Windows NT 10.0; Win64; x64) AppleWebKit/537.36 (KHTML, like Gecko) Chrome/114.0.0.0 Safari/537.36" etag="kDI-tNnwTkjJRm9ypgZC" version="21.5.1" type="device">
  <diagram name="Pagina-1" id="MY9TxeBFCIl_SC6JSBr-">
    <mxGraphModel dx="1195" dy="672" grid="1" gridSize="10" guides="1" tooltips="1" connect="1" arrows="1" fold="1" page="1" pageScale="1" pageWidth="827" pageHeight="1169" math="0" shadow="0">
      <root>
        <mxCell id="0" />
        <mxCell id="1" parent="0" />
        <mxCell id="gBmabcXSl3l0NfmqYwL5-1" value="Dipartimenti" style="shape=table;startSize=30;container=1;collapsible=1;childLayout=tableLayout;fixedRows=1;rowLines=0;fontStyle=1;align=center;resizeLast=1;html=1;" parent="1" vertex="1">
          <mxGeometry x="70" y="60" width="166" height="120" as="geometry" />
        </mxCell>
        <mxCell id="gBmabcXSl3l0NfmqYwL5-2" value="" style="shape=tableRow;horizontal=0;startSize=0;swimlaneHead=0;swimlaneBody=0;fillColor=none;collapsible=0;dropTarget=0;points=[[0,0.5],[1,0.5]];portConstraint=eastwest;top=0;left=0;right=0;bottom=1;" parent="gBmabcXSl3l0NfmqYwL5-1" vertex="1">
          <mxGeometry y="30" width="166" height="30" as="geometry" />
        </mxCell>
        <mxCell id="gBmabcXSl3l0NfmqYwL5-3" value="PK" style="shape=partialRectangle;connectable=0;fillColor=none;top=0;left=0;bottom=0;right=0;fontStyle=1;overflow=hidden;whiteSpace=wrap;html=1;" parent="gBmabcXSl3l0NfmqYwL5-2" vertex="1">
          <mxGeometry width="30" height="30" as="geometry">
            <mxRectangle width="30" height="30" as="alternateBounds" />
          </mxGeometry>
        </mxCell>
        <mxCell id="gBmabcXSl3l0NfmqYwL5-4" value="id" style="shape=partialRectangle;connectable=0;fillColor=none;top=0;left=0;bottom=0;right=0;align=left;spacingLeft=6;fontStyle=5;overflow=hidden;whiteSpace=wrap;html=1;" parent="gBmabcXSl3l0NfmqYwL5-2" vertex="1">
          <mxGeometry x="30" width="136" height="30" as="geometry">
            <mxRectangle width="136" height="30" as="alternateBounds" />
          </mxGeometry>
        </mxCell>
        <mxCell id="gBmabcXSl3l0NfmqYwL5-5" value="" style="shape=tableRow;horizontal=0;startSize=0;swimlaneHead=0;swimlaneBody=0;fillColor=none;collapsible=0;dropTarget=0;points=[[0,0.5],[1,0.5]];portConstraint=eastwest;top=0;left=0;right=0;bottom=0;" parent="gBmabcXSl3l0NfmqYwL5-1" vertex="1">
          <mxGeometry y="60" width="166" height="30" as="geometry" />
        </mxCell>
        <mxCell id="gBmabcXSl3l0NfmqYwL5-6" value="" style="shape=partialRectangle;connectable=0;fillColor=none;top=0;left=0;bottom=0;right=0;editable=1;overflow=hidden;whiteSpace=wrap;html=1;" parent="gBmabcXSl3l0NfmqYwL5-5" vertex="1">
          <mxGeometry width="30" height="30" as="geometry">
            <mxRectangle width="30" height="30" as="alternateBounds" />
          </mxGeometry>
        </mxCell>
        <mxCell id="gBmabcXSl3l0NfmqYwL5-7" value="Nome" style="shape=partialRectangle;connectable=0;fillColor=none;top=0;left=0;bottom=0;right=0;align=left;spacingLeft=6;overflow=hidden;whiteSpace=wrap;html=1;" parent="gBmabcXSl3l0NfmqYwL5-5" vertex="1">
          <mxGeometry x="30" width="136" height="30" as="geometry">
            <mxRectangle width="136" height="30" as="alternateBounds" />
          </mxGeometry>
        </mxCell>
        <mxCell id="gBmabcXSl3l0NfmqYwL5-84" style="shape=tableRow;horizontal=0;startSize=0;swimlaneHead=0;swimlaneBody=0;fillColor=none;collapsible=0;dropTarget=0;points=[[0,0.5],[1,0.5]];portConstraint=eastwest;top=0;left=0;right=0;bottom=0;" parent="gBmabcXSl3l0NfmqYwL5-1" vertex="1">
          <mxGeometry y="90" width="166" height="30" as="geometry" />
        </mxCell>
        <mxCell id="gBmabcXSl3l0NfmqYwL5-85" style="shape=partialRectangle;connectable=0;fillColor=none;top=0;left=0;bottom=0;right=0;editable=1;overflow=hidden;whiteSpace=wrap;html=1;" parent="gBmabcXSl3l0NfmqYwL5-84" vertex="1">
          <mxGeometry width="30" height="30" as="geometry">
            <mxRectangle width="30" height="30" as="alternateBounds" />
          </mxGeometry>
        </mxCell>
        <mxCell id="gBmabcXSl3l0NfmqYwL5-86" value="Campo di studio" style="shape=partialRectangle;connectable=0;fillColor=none;top=0;left=0;bottom=0;right=0;align=left;spacingLeft=6;overflow=hidden;whiteSpace=wrap;html=1;" parent="gBmabcXSl3l0NfmqYwL5-84" vertex="1">
          <mxGeometry x="30" width="136" height="30" as="geometry">
            <mxRectangle width="136" height="30" as="alternateBounds" />
          </mxGeometry>
        </mxCell>
        <mxCell id="gBmabcXSl3l0NfmqYwL5-24" value="Corsi di Laurea" style="shape=table;startSize=30;container=1;collapsible=1;childLayout=tableLayout;fixedRows=1;rowLines=0;fontStyle=1;align=center;resizeLast=1;html=1;" parent="1" vertex="1">
          <mxGeometry x="400" y="15" width="166" height="210" as="geometry" />
        </mxCell>
        <mxCell id="gBmabcXSl3l0NfmqYwL5-25" value="" style="shape=tableRow;horizontal=0;startSize=0;swimlaneHead=0;swimlaneBody=0;fillColor=none;collapsible=0;dropTarget=0;points=[[0,0.5],[1,0.5]];portConstraint=eastwest;top=0;left=0;right=0;bottom=1;" parent="gBmabcXSl3l0NfmqYwL5-24" vertex="1">
          <mxGeometry y="30" width="166" height="30" as="geometry" />
        </mxCell>
        <mxCell id="gBmabcXSl3l0NfmqYwL5-26" value="PK" style="shape=partialRectangle;connectable=0;fillColor=none;top=0;left=0;bottom=0;right=0;fontStyle=1;overflow=hidden;whiteSpace=wrap;html=1;" parent="gBmabcXSl3l0NfmqYwL5-25" vertex="1">
          <mxGeometry width="30" height="30" as="geometry">
            <mxRectangle width="30" height="30" as="alternateBounds" />
          </mxGeometry>
        </mxCell>
        <mxCell id="gBmabcXSl3l0NfmqYwL5-27" value="id" style="shape=partialRectangle;connectable=0;fillColor=none;top=0;left=0;bottom=0;right=0;align=left;spacingLeft=6;fontStyle=5;overflow=hidden;whiteSpace=wrap;html=1;" parent="gBmabcXSl3l0NfmqYwL5-25" vertex="1">
          <mxGeometry x="30" width="136" height="30" as="geometry">
            <mxRectangle width="136" height="30" as="alternateBounds" />
          </mxGeometry>
        </mxCell>
        <mxCell id="gBmabcXSl3l0NfmqYwL5-28" value="" style="shape=tableRow;horizontal=0;startSize=0;swimlaneHead=0;swimlaneBody=0;fillColor=none;collapsible=0;dropTarget=0;points=[[0,0.5],[1,0.5]];portConstraint=eastwest;top=0;left=0;right=0;bottom=0;" parent="gBmabcXSl3l0NfmqYwL5-24" vertex="1">
          <mxGeometry y="60" width="166" height="30" as="geometry" />
        </mxCell>
        <mxCell id="gBmabcXSl3l0NfmqYwL5-29" value="" style="shape=partialRectangle;connectable=0;fillColor=none;top=0;left=0;bottom=0;right=0;editable=1;overflow=hidden;whiteSpace=wrap;html=1;" parent="gBmabcXSl3l0NfmqYwL5-28" vertex="1">
          <mxGeometry width="30" height="30" as="geometry">
            <mxRectangle width="30" height="30" as="alternateBounds" />
          </mxGeometry>
        </mxCell>
        <mxCell id="gBmabcXSl3l0NfmqYwL5-30" value="Nome&lt;span style=&quot;white-space: pre;&quot;&gt;&#x9;&lt;/span&gt;" style="shape=partialRectangle;connectable=0;fillColor=none;top=0;left=0;bottom=0;right=0;align=left;spacingLeft=6;overflow=hidden;whiteSpace=wrap;html=1;" parent="gBmabcXSl3l0NfmqYwL5-28" vertex="1">
          <mxGeometry x="30" width="136" height="30" as="geometry">
            <mxRectangle width="136" height="30" as="alternateBounds" />
          </mxGeometry>
        </mxCell>
        <mxCell id="gBmabcXSl3l0NfmqYwL5-31" value="" style="shape=tableRow;horizontal=0;startSize=0;swimlaneHead=0;swimlaneBody=0;fillColor=none;collapsible=0;dropTarget=0;points=[[0,0.5],[1,0.5]];portConstraint=eastwest;top=0;left=0;right=0;bottom=0;" parent="gBmabcXSl3l0NfmqYwL5-24" vertex="1">
          <mxGeometry y="90" width="166" height="30" as="geometry" />
        </mxCell>
        <mxCell id="gBmabcXSl3l0NfmqYwL5-32" value="" style="shape=partialRectangle;connectable=0;fillColor=none;top=0;left=0;bottom=0;right=0;editable=1;overflow=hidden;whiteSpace=wrap;html=1;" parent="gBmabcXSl3l0NfmqYwL5-31" vertex="1">
          <mxGeometry width="30" height="30" as="geometry">
            <mxRectangle width="30" height="30" as="alternateBounds" />
          </mxGeometry>
        </mxCell>
        <mxCell id="gBmabcXSl3l0NfmqYwL5-33" value="ID dipartimento" style="shape=partialRectangle;connectable=0;fillColor=none;top=0;left=0;bottom=0;right=0;align=left;spacingLeft=6;overflow=hidden;whiteSpace=wrap;html=1;" parent="gBmabcXSl3l0NfmqYwL5-31" vertex="1">
          <mxGeometry x="30" width="136" height="30" as="geometry">
            <mxRectangle width="136" height="30" as="alternateBounds" />
          </mxGeometry>
        </mxCell>
        <mxCell id="gBmabcXSl3l0NfmqYwL5-93" style="shape=tableRow;horizontal=0;startSize=0;swimlaneHead=0;swimlaneBody=0;fillColor=none;collapsible=0;dropTarget=0;points=[[0,0.5],[1,0.5]];portConstraint=eastwest;top=0;left=0;right=0;bottom=0;" parent="gBmabcXSl3l0NfmqYwL5-24" vertex="1">
          <mxGeometry y="120" width="166" height="30" as="geometry" />
        </mxCell>
        <mxCell id="gBmabcXSl3l0NfmqYwL5-94" style="shape=partialRectangle;connectable=0;fillColor=none;top=0;left=0;bottom=0;right=0;editable=1;overflow=hidden;whiteSpace=wrap;html=1;" parent="gBmabcXSl3l0NfmqYwL5-93" vertex="1">
          <mxGeometry width="30" height="30" as="geometry">
            <mxRectangle width="30" height="30" as="alternateBounds" />
          </mxGeometry>
        </mxCell>
        <mxCell id="gBmabcXSl3l0NfmqYwL5-95" value="durata" style="shape=partialRectangle;connectable=0;fillColor=none;top=0;left=0;bottom=0;right=0;align=left;spacingLeft=6;overflow=hidden;whiteSpace=wrap;html=1;" parent="gBmabcXSl3l0NfmqYwL5-93" vertex="1">
          <mxGeometry x="30" width="136" height="30" as="geometry">
            <mxRectangle width="136" height="30" as="alternateBounds" />
          </mxGeometry>
        </mxCell>
        <mxCell id="gBmabcXSl3l0NfmqYwL5-96" style="shape=tableRow;horizontal=0;startSize=0;swimlaneHead=0;swimlaneBody=0;fillColor=none;collapsible=0;dropTarget=0;points=[[0,0.5],[1,0.5]];portConstraint=eastwest;top=0;left=0;right=0;bottom=0;" parent="gBmabcXSl3l0NfmqYwL5-24" vertex="1">
          <mxGeometry y="150" width="166" height="30" as="geometry" />
        </mxCell>
        <mxCell id="gBmabcXSl3l0NfmqYwL5-97" style="shape=partialRectangle;connectable=0;fillColor=none;top=0;left=0;bottom=0;right=0;editable=1;overflow=hidden;whiteSpace=wrap;html=1;" parent="gBmabcXSl3l0NfmqYwL5-96" vertex="1">
          <mxGeometry width="30" height="30" as="geometry">
            <mxRectangle width="30" height="30" as="alternateBounds" />
          </mxGeometry>
        </mxCell>
        <mxCell id="gBmabcXSl3l0NfmqYwL5-98" value="livello" style="shape=partialRectangle;connectable=0;fillColor=none;top=0;left=0;bottom=0;right=0;align=left;spacingLeft=6;overflow=hidden;whiteSpace=wrap;html=1;" parent="gBmabcXSl3l0NfmqYwL5-96" vertex="1">
          <mxGeometry x="30" width="136" height="30" as="geometry">
            <mxRectangle width="136" height="30" as="alternateBounds" />
          </mxGeometry>
        </mxCell>
        <mxCell id="gBmabcXSl3l0NfmqYwL5-99" style="shape=tableRow;horizontal=0;startSize=0;swimlaneHead=0;swimlaneBody=0;fillColor=none;collapsible=0;dropTarget=0;points=[[0,0.5],[1,0.5]];portConstraint=eastwest;top=0;left=0;right=0;bottom=0;" parent="gBmabcXSl3l0NfmqYwL5-24" vertex="1">
          <mxGeometry y="180" width="166" height="30" as="geometry" />
        </mxCell>
        <mxCell id="gBmabcXSl3l0NfmqYwL5-100" style="shape=partialRectangle;connectable=0;fillColor=none;top=0;left=0;bottom=0;right=0;editable=1;overflow=hidden;whiteSpace=wrap;html=1;" parent="gBmabcXSl3l0NfmqYwL5-99" vertex="1">
          <mxGeometry width="30" height="30" as="geometry">
            <mxRectangle width="30" height="30" as="alternateBounds" />
          </mxGeometry>
        </mxCell>
        <mxCell id="gBmabcXSl3l0NfmqYwL5-101" value="lingua" style="shape=partialRectangle;connectable=0;fillColor=none;top=0;left=0;bottom=0;right=0;align=left;spacingLeft=6;overflow=hidden;whiteSpace=wrap;html=1;" parent="gBmabcXSl3l0NfmqYwL5-99" vertex="1">
          <mxGeometry x="30" width="136" height="30" as="geometry">
            <mxRectangle width="136" height="30" as="alternateBounds" />
          </mxGeometry>
        </mxCell>
        <mxCell id="gBmabcXSl3l0NfmqYwL5-34" value="Corsi" style="shape=table;startSize=30;container=1;collapsible=1;childLayout=tableLayout;fixedRows=1;rowLines=0;fontStyle=1;align=center;resizeLast=1;html=1;" parent="1" vertex="1">
          <mxGeometry x="630" y="240" width="166" height="210" as="geometry" />
        </mxCell>
        <mxCell id="gBmabcXSl3l0NfmqYwL5-35" value="" style="shape=tableRow;horizontal=0;startSize=0;swimlaneHead=0;swimlaneBody=0;fillColor=none;collapsible=0;dropTarget=0;points=[[0,0.5],[1,0.5]];portConstraint=eastwest;top=0;left=0;right=0;bottom=1;" parent="gBmabcXSl3l0NfmqYwL5-34" vertex="1">
          <mxGeometry y="30" width="166" height="30" as="geometry" />
        </mxCell>
        <mxCell id="gBmabcXSl3l0NfmqYwL5-36" value="PK" style="shape=partialRectangle;connectable=0;fillColor=none;top=0;left=0;bottom=0;right=0;fontStyle=1;overflow=hidden;whiteSpace=wrap;html=1;" parent="gBmabcXSl3l0NfmqYwL5-35" vertex="1">
          <mxGeometry width="30" height="30" as="geometry">
            <mxRectangle width="30" height="30" as="alternateBounds" />
          </mxGeometry>
        </mxCell>
        <mxCell id="gBmabcXSl3l0NfmqYwL5-37" value="id" style="shape=partialRectangle;connectable=0;fillColor=none;top=0;left=0;bottom=0;right=0;align=left;spacingLeft=6;fontStyle=5;overflow=hidden;whiteSpace=wrap;html=1;" parent="gBmabcXSl3l0NfmqYwL5-35" vertex="1">
          <mxGeometry x="30" width="136" height="30" as="geometry">
            <mxRectangle width="136" height="30" as="alternateBounds" />
          </mxGeometry>
        </mxCell>
        <mxCell id="gBmabcXSl3l0NfmqYwL5-38" value="" style="shape=tableRow;horizontal=0;startSize=0;swimlaneHead=0;swimlaneBody=0;fillColor=none;collapsible=0;dropTarget=0;points=[[0,0.5],[1,0.5]];portConstraint=eastwest;top=0;left=0;right=0;bottom=0;" parent="gBmabcXSl3l0NfmqYwL5-34" vertex="1">
          <mxGeometry y="60" width="166" height="30" as="geometry" />
        </mxCell>
        <mxCell id="gBmabcXSl3l0NfmqYwL5-39" value="" style="shape=partialRectangle;connectable=0;fillColor=none;top=0;left=0;bottom=0;right=0;editable=1;overflow=hidden;whiteSpace=wrap;html=1;" parent="gBmabcXSl3l0NfmqYwL5-38" vertex="1">
          <mxGeometry width="30" height="30" as="geometry">
            <mxRectangle width="30" height="30" as="alternateBounds" />
          </mxGeometry>
        </mxCell>
        <mxCell id="gBmabcXSl3l0NfmqYwL5-40" value="Nome" style="shape=partialRectangle;connectable=0;fillColor=none;top=0;left=0;bottom=0;right=0;align=left;spacingLeft=6;overflow=hidden;whiteSpace=wrap;html=1;" parent="gBmabcXSl3l0NfmqYwL5-38" vertex="1">
          <mxGeometry x="30" width="136" height="30" as="geometry">
            <mxRectangle width="136" height="30" as="alternateBounds" />
          </mxGeometry>
        </mxCell>
        <mxCell id="gBmabcXSl3l0NfmqYwL5-41" value="" style="shape=tableRow;horizontal=0;startSize=0;swimlaneHead=0;swimlaneBody=0;fillColor=none;collapsible=0;dropTarget=0;points=[[0,0.5],[1,0.5]];portConstraint=eastwest;top=0;left=0;right=0;bottom=0;" parent="gBmabcXSl3l0NfmqYwL5-34" vertex="1">
          <mxGeometry y="90" width="166" height="30" as="geometry" />
        </mxCell>
        <mxCell id="gBmabcXSl3l0NfmqYwL5-42" value="" style="shape=partialRectangle;connectable=0;fillColor=none;top=0;left=0;bottom=0;right=0;editable=1;overflow=hidden;whiteSpace=wrap;html=1;" parent="gBmabcXSl3l0NfmqYwL5-41" vertex="1">
          <mxGeometry width="30" height="30" as="geometry">
            <mxRectangle width="30" height="30" as="alternateBounds" />
          </mxGeometry>
        </mxCell>
        <mxCell id="gBmabcXSl3l0NfmqYwL5-43" value="ID corso" style="shape=partialRectangle;connectable=0;fillColor=none;top=0;left=0;bottom=0;right=0;align=left;spacingLeft=6;overflow=hidden;whiteSpace=wrap;html=1;" parent="gBmabcXSl3l0NfmqYwL5-41" vertex="1">
          <mxGeometry x="30" width="136" height="30" as="geometry">
            <mxRectangle width="136" height="30" as="alternateBounds" />
          </mxGeometry>
        </mxCell>
        <mxCell id="gBmabcXSl3l0NfmqYwL5-102" style="shape=tableRow;horizontal=0;startSize=0;swimlaneHead=0;swimlaneBody=0;fillColor=none;collapsible=0;dropTarget=0;points=[[0,0.5],[1,0.5]];portConstraint=eastwest;top=0;left=0;right=0;bottom=0;" parent="gBmabcXSl3l0NfmqYwL5-34" vertex="1">
          <mxGeometry y="120" width="166" height="30" as="geometry" />
        </mxCell>
        <mxCell id="gBmabcXSl3l0NfmqYwL5-103" style="shape=partialRectangle;connectable=0;fillColor=none;top=0;left=0;bottom=0;right=0;editable=1;overflow=hidden;whiteSpace=wrap;html=1;" parent="gBmabcXSl3l0NfmqYwL5-102" vertex="1">
          <mxGeometry width="30" height="30" as="geometry">
            <mxRectangle width="30" height="30" as="alternateBounds" />
          </mxGeometry>
        </mxCell>
        <mxCell id="gBmabcXSl3l0NfmqYwL5-104" value="Crediti" style="shape=partialRectangle;connectable=0;fillColor=none;top=0;left=0;bottom=0;right=0;align=left;spacingLeft=6;overflow=hidden;whiteSpace=wrap;html=1;" parent="gBmabcXSl3l0NfmqYwL5-102" vertex="1">
          <mxGeometry x="30" width="136" height="30" as="geometry">
            <mxRectangle width="136" height="30" as="alternateBounds" />
          </mxGeometry>
        </mxCell>
        <mxCell id="gBmabcXSl3l0NfmqYwL5-105" style="shape=tableRow;horizontal=0;startSize=0;swimlaneHead=0;swimlaneBody=0;fillColor=none;collapsible=0;dropTarget=0;points=[[0,0.5],[1,0.5]];portConstraint=eastwest;top=0;left=0;right=0;bottom=0;" parent="gBmabcXSl3l0NfmqYwL5-34" vertex="1">
          <mxGeometry y="150" width="166" height="30" as="geometry" />
        </mxCell>
        <mxCell id="gBmabcXSl3l0NfmqYwL5-106" style="shape=partialRectangle;connectable=0;fillColor=none;top=0;left=0;bottom=0;right=0;editable=1;overflow=hidden;whiteSpace=wrap;html=1;" parent="gBmabcXSl3l0NfmqYwL5-105" vertex="1">
          <mxGeometry width="30" height="30" as="geometry">
            <mxRectangle width="30" height="30" as="alternateBounds" />
          </mxGeometry>
        </mxCell>
        <mxCell id="gBmabcXSl3l0NfmqYwL5-107" value="Livello difficoltà" style="shape=partialRectangle;connectable=0;fillColor=none;top=0;left=0;bottom=0;right=0;align=left;spacingLeft=6;overflow=hidden;whiteSpace=wrap;html=1;" parent="gBmabcXSl3l0NfmqYwL5-105" vertex="1">
          <mxGeometry x="30" width="136" height="30" as="geometry">
            <mxRectangle width="136" height="30" as="alternateBounds" />
          </mxGeometry>
        </mxCell>
        <mxCell id="gBmabcXSl3l0NfmqYwL5-108" style="shape=tableRow;horizontal=0;startSize=0;swimlaneHead=0;swimlaneBody=0;fillColor=none;collapsible=0;dropTarget=0;points=[[0,0.5],[1,0.5]];portConstraint=eastwest;top=0;left=0;right=0;bottom=0;" parent="gBmabcXSl3l0NfmqYwL5-34" vertex="1">
          <mxGeometry y="180" width="166" height="30" as="geometry" />
        </mxCell>
        <mxCell id="gBmabcXSl3l0NfmqYwL5-109" style="shape=partialRectangle;connectable=0;fillColor=none;top=0;left=0;bottom=0;right=0;editable=1;overflow=hidden;whiteSpace=wrap;html=1;" parent="gBmabcXSl3l0NfmqYwL5-108" vertex="1">
          <mxGeometry width="30" height="30" as="geometry">
            <mxRectangle width="30" height="30" as="alternateBounds" />
          </mxGeometry>
        </mxCell>
        <mxCell id="gBmabcXSl3l0NfmqYwL5-110" value="Descrizione" style="shape=partialRectangle;connectable=0;fillColor=none;top=0;left=0;bottom=0;right=0;align=left;spacingLeft=6;overflow=hidden;whiteSpace=wrap;html=1;" parent="gBmabcXSl3l0NfmqYwL5-108" vertex="1">
          <mxGeometry x="30" width="136" height="30" as="geometry">
            <mxRectangle width="136" height="30" as="alternateBounds" />
          </mxGeometry>
        </mxCell>
        <mxCell id="gBmabcXSl3l0NfmqYwL5-44" value="Insegnanti" style="shape=table;startSize=30;container=1;collapsible=1;childLayout=tableLayout;fixedRows=1;rowLines=0;fontStyle=1;align=center;resizeLast=1;html=1;" parent="1" vertex="1">
          <mxGeometry x="150" y="260" width="166" height="210" as="geometry" />
        </mxCell>
        <mxCell id="gBmabcXSl3l0NfmqYwL5-45" value="" style="shape=tableRow;horizontal=0;startSize=0;swimlaneHead=0;swimlaneBody=0;fillColor=none;collapsible=0;dropTarget=0;points=[[0,0.5],[1,0.5]];portConstraint=eastwest;top=0;left=0;right=0;bottom=1;" parent="gBmabcXSl3l0NfmqYwL5-44" vertex="1">
          <mxGeometry y="30" width="166" height="30" as="geometry" />
        </mxCell>
        <mxCell id="gBmabcXSl3l0NfmqYwL5-46" value="PK" style="shape=partialRectangle;connectable=0;fillColor=none;top=0;left=0;bottom=0;right=0;fontStyle=1;overflow=hidden;whiteSpace=wrap;html=1;" parent="gBmabcXSl3l0NfmqYwL5-45" vertex="1">
          <mxGeometry width="30" height="30" as="geometry">
            <mxRectangle width="30" height="30" as="alternateBounds" />
          </mxGeometry>
        </mxCell>
        <mxCell id="gBmabcXSl3l0NfmqYwL5-47" value="id" style="shape=partialRectangle;connectable=0;fillColor=none;top=0;left=0;bottom=0;right=0;align=left;spacingLeft=6;fontStyle=5;overflow=hidden;whiteSpace=wrap;html=1;" parent="gBmabcXSl3l0NfmqYwL5-45" vertex="1">
          <mxGeometry x="30" width="136" height="30" as="geometry">
            <mxRectangle width="136" height="30" as="alternateBounds" />
          </mxGeometry>
        </mxCell>
        <mxCell id="gBmabcXSl3l0NfmqYwL5-48" value="" style="shape=tableRow;horizontal=0;startSize=0;swimlaneHead=0;swimlaneBody=0;fillColor=none;collapsible=0;dropTarget=0;points=[[0,0.5],[1,0.5]];portConstraint=eastwest;top=0;left=0;right=0;bottom=0;" parent="gBmabcXSl3l0NfmqYwL5-44" vertex="1">
          <mxGeometry y="60" width="166" height="30" as="geometry" />
        </mxCell>
        <mxCell id="gBmabcXSl3l0NfmqYwL5-49" value="" style="shape=partialRectangle;connectable=0;fillColor=none;top=0;left=0;bottom=0;right=0;editable=1;overflow=hidden;whiteSpace=wrap;html=1;" parent="gBmabcXSl3l0NfmqYwL5-48" vertex="1">
          <mxGeometry width="30" height="30" as="geometry">
            <mxRectangle width="30" height="30" as="alternateBounds" />
          </mxGeometry>
        </mxCell>
        <mxCell id="gBmabcXSl3l0NfmqYwL5-50" value="Nome" style="shape=partialRectangle;connectable=0;fillColor=none;top=0;left=0;bottom=0;right=0;align=left;spacingLeft=6;overflow=hidden;whiteSpace=wrap;html=1;" parent="gBmabcXSl3l0NfmqYwL5-48" vertex="1">
          <mxGeometry x="30" width="136" height="30" as="geometry">
            <mxRectangle width="136" height="30" as="alternateBounds" />
          </mxGeometry>
        </mxCell>
        <mxCell id="gBmabcXSl3l0NfmqYwL5-51" value="" style="shape=tableRow;horizontal=0;startSize=0;swimlaneHead=0;swimlaneBody=0;fillColor=none;collapsible=0;dropTarget=0;points=[[0,0.5],[1,0.5]];portConstraint=eastwest;top=0;left=0;right=0;bottom=0;" parent="gBmabcXSl3l0NfmqYwL5-44" vertex="1">
          <mxGeometry y="90" width="166" height="30" as="geometry" />
        </mxCell>
        <mxCell id="gBmabcXSl3l0NfmqYwL5-52" value="" style="shape=partialRectangle;connectable=0;fillColor=none;top=0;left=0;bottom=0;right=0;editable=1;overflow=hidden;whiteSpace=wrap;html=1;" parent="gBmabcXSl3l0NfmqYwL5-51" vertex="1">
          <mxGeometry width="30" height="30" as="geometry">
            <mxRectangle width="30" height="30" as="alternateBounds" />
          </mxGeometry>
        </mxCell>
        <mxCell id="gBmabcXSl3l0NfmqYwL5-53" value="Cognome" style="shape=partialRectangle;connectable=0;fillColor=none;top=0;left=0;bottom=0;right=0;align=left;spacingLeft=6;overflow=hidden;whiteSpace=wrap;html=1;" parent="gBmabcXSl3l0NfmqYwL5-51" vertex="1">
          <mxGeometry x="30" width="136" height="30" as="geometry">
            <mxRectangle width="136" height="30" as="alternateBounds" />
          </mxGeometry>
        </mxCell>
        <mxCell id="gBmabcXSl3l0NfmqYwL5-117" style="shape=tableRow;horizontal=0;startSize=0;swimlaneHead=0;swimlaneBody=0;fillColor=none;collapsible=0;dropTarget=0;points=[[0,0.5],[1,0.5]];portConstraint=eastwest;top=0;left=0;right=0;bottom=0;" parent="gBmabcXSl3l0NfmqYwL5-44" vertex="1">
          <mxGeometry y="120" width="166" height="30" as="geometry" />
        </mxCell>
        <mxCell id="gBmabcXSl3l0NfmqYwL5-118" style="shape=partialRectangle;connectable=0;fillColor=none;top=0;left=0;bottom=0;right=0;editable=1;overflow=hidden;whiteSpace=wrap;html=1;" parent="gBmabcXSl3l0NfmqYwL5-117" vertex="1">
          <mxGeometry width="30" height="30" as="geometry">
            <mxRectangle width="30" height="30" as="alternateBounds" />
          </mxGeometry>
        </mxCell>
        <mxCell id="gBmabcXSl3l0NfmqYwL5-119" value="Specializzazione" style="shape=partialRectangle;connectable=0;fillColor=none;top=0;left=0;bottom=0;right=0;align=left;spacingLeft=6;overflow=hidden;whiteSpace=wrap;html=1;" parent="gBmabcXSl3l0NfmqYwL5-117" vertex="1">
          <mxGeometry x="30" width="136" height="30" as="geometry">
            <mxRectangle width="136" height="30" as="alternateBounds" />
          </mxGeometry>
        </mxCell>
        <mxCell id="gBmabcXSl3l0NfmqYwL5-114" style="shape=tableRow;horizontal=0;startSize=0;swimlaneHead=0;swimlaneBody=0;fillColor=none;collapsible=0;dropTarget=0;points=[[0,0.5],[1,0.5]];portConstraint=eastwest;top=0;left=0;right=0;bottom=0;" parent="gBmabcXSl3l0NfmqYwL5-44" vertex="1">
          <mxGeometry y="150" width="166" height="30" as="geometry" />
        </mxCell>
        <mxCell id="gBmabcXSl3l0NfmqYwL5-115" style="shape=partialRectangle;connectable=0;fillColor=none;top=0;left=0;bottom=0;right=0;editable=1;overflow=hidden;whiteSpace=wrap;html=1;" parent="gBmabcXSl3l0NfmqYwL5-114" vertex="1">
          <mxGeometry width="30" height="30" as="geometry">
            <mxRectangle width="30" height="30" as="alternateBounds" />
          </mxGeometry>
        </mxCell>
        <mxCell id="gBmabcXSl3l0NfmqYwL5-116" value="Telefono" style="shape=partialRectangle;connectable=0;fillColor=none;top=0;left=0;bottom=0;right=0;align=left;spacingLeft=6;overflow=hidden;whiteSpace=wrap;html=1;" parent="gBmabcXSl3l0NfmqYwL5-114" vertex="1">
          <mxGeometry x="30" width="136" height="30" as="geometry">
            <mxRectangle width="136" height="30" as="alternateBounds" />
          </mxGeometry>
        </mxCell>
        <mxCell id="gBmabcXSl3l0NfmqYwL5-111" style="shape=tableRow;horizontal=0;startSize=0;swimlaneHead=0;swimlaneBody=0;fillColor=none;collapsible=0;dropTarget=0;points=[[0,0.5],[1,0.5]];portConstraint=eastwest;top=0;left=0;right=0;bottom=0;" parent="gBmabcXSl3l0NfmqYwL5-44" vertex="1">
          <mxGeometry y="180" width="166" height="30" as="geometry" />
        </mxCell>
        <mxCell id="gBmabcXSl3l0NfmqYwL5-112" style="shape=partialRectangle;connectable=0;fillColor=none;top=0;left=0;bottom=0;right=0;editable=1;overflow=hidden;whiteSpace=wrap;html=1;" parent="gBmabcXSl3l0NfmqYwL5-111" vertex="1">
          <mxGeometry width="30" height="30" as="geometry">
            <mxRectangle width="30" height="30" as="alternateBounds" />
          </mxGeometry>
        </mxCell>
        <mxCell id="gBmabcXSl3l0NfmqYwL5-113" value="Mail" style="shape=partialRectangle;connectable=0;fillColor=none;top=0;left=0;bottom=0;right=0;align=left;spacingLeft=6;overflow=hidden;whiteSpace=wrap;html=1;" parent="gBmabcXSl3l0NfmqYwL5-111" vertex="1">
          <mxGeometry x="30" width="136" height="30" as="geometry">
            <mxRectangle width="136" height="30" as="alternateBounds" />
          </mxGeometry>
        </mxCell>
        <mxCell id="gBmabcXSl3l0NfmqYwL5-54" value="Appelli d&#39;esame" style="shape=table;startSize=30;container=1;collapsible=1;childLayout=tableLayout;fixedRows=1;rowLines=0;fontStyle=1;align=center;resizeLast=1;html=1;" parent="1" vertex="1">
          <mxGeometry x="20" y="620" width="166" height="180" as="geometry" />
        </mxCell>
        <mxCell id="gBmabcXSl3l0NfmqYwL5-55" value="" style="shape=tableRow;horizontal=0;startSize=0;swimlaneHead=0;swimlaneBody=0;fillColor=none;collapsible=0;dropTarget=0;points=[[0,0.5],[1,0.5]];portConstraint=eastwest;top=0;left=0;right=0;bottom=1;" parent="gBmabcXSl3l0NfmqYwL5-54" vertex="1">
          <mxGeometry y="30" width="166" height="30" as="geometry" />
        </mxCell>
        <mxCell id="gBmabcXSl3l0NfmqYwL5-56" value="PK" style="shape=partialRectangle;connectable=0;fillColor=none;top=0;left=0;bottom=0;right=0;fontStyle=1;overflow=hidden;whiteSpace=wrap;html=1;" parent="gBmabcXSl3l0NfmqYwL5-55" vertex="1">
          <mxGeometry width="30" height="30" as="geometry">
            <mxRectangle width="30" height="30" as="alternateBounds" />
          </mxGeometry>
        </mxCell>
        <mxCell id="gBmabcXSl3l0NfmqYwL5-57" value="id" style="shape=partialRectangle;connectable=0;fillColor=none;top=0;left=0;bottom=0;right=0;align=left;spacingLeft=6;fontStyle=5;overflow=hidden;whiteSpace=wrap;html=1;" parent="gBmabcXSl3l0NfmqYwL5-55" vertex="1">
          <mxGeometry x="30" width="136" height="30" as="geometry">
            <mxRectangle width="136" height="30" as="alternateBounds" />
          </mxGeometry>
        </mxCell>
        <mxCell id="gBmabcXSl3l0NfmqYwL5-58" value="" style="shape=tableRow;horizontal=0;startSize=0;swimlaneHead=0;swimlaneBody=0;fillColor=none;collapsible=0;dropTarget=0;points=[[0,0.5],[1,0.5]];portConstraint=eastwest;top=0;left=0;right=0;bottom=0;" parent="gBmabcXSl3l0NfmqYwL5-54" vertex="1">
          <mxGeometry y="60" width="166" height="30" as="geometry" />
        </mxCell>
        <mxCell id="gBmabcXSl3l0NfmqYwL5-59" value="" style="shape=partialRectangle;connectable=0;fillColor=none;top=0;left=0;bottom=0;right=0;editable=1;overflow=hidden;whiteSpace=wrap;html=1;" parent="gBmabcXSl3l0NfmqYwL5-58" vertex="1">
          <mxGeometry width="30" height="30" as="geometry">
            <mxRectangle width="30" height="30" as="alternateBounds" />
          </mxGeometry>
        </mxCell>
        <mxCell id="gBmabcXSl3l0NfmqYwL5-60" value="Data" style="shape=partialRectangle;connectable=0;fillColor=none;top=0;left=0;bottom=0;right=0;align=left;spacingLeft=6;overflow=hidden;whiteSpace=wrap;html=1;" parent="gBmabcXSl3l0NfmqYwL5-58" vertex="1">
          <mxGeometry x="30" width="136" height="30" as="geometry">
            <mxRectangle width="136" height="30" as="alternateBounds" />
          </mxGeometry>
        </mxCell>
        <mxCell id="gBmabcXSl3l0NfmqYwL5-61" value="" style="shape=tableRow;horizontal=0;startSize=0;swimlaneHead=0;swimlaneBody=0;fillColor=none;collapsible=0;dropTarget=0;points=[[0,0.5],[1,0.5]];portConstraint=eastwest;top=0;left=0;right=0;bottom=0;" parent="gBmabcXSl3l0NfmqYwL5-54" vertex="1">
          <mxGeometry y="90" width="166" height="30" as="geometry" />
        </mxCell>
        <mxCell id="gBmabcXSl3l0NfmqYwL5-62" value="" style="shape=partialRectangle;connectable=0;fillColor=none;top=0;left=0;bottom=0;right=0;editable=1;overflow=hidden;whiteSpace=wrap;html=1;" parent="gBmabcXSl3l0NfmqYwL5-61" vertex="1">
          <mxGeometry width="30" height="30" as="geometry">
            <mxRectangle width="30" height="30" as="alternateBounds" />
          </mxGeometry>
        </mxCell>
        <mxCell id="gBmabcXSl3l0NfmqYwL5-63" value="Durata" style="shape=partialRectangle;connectable=0;fillColor=none;top=0;left=0;bottom=0;right=0;align=left;spacingLeft=6;overflow=hidden;whiteSpace=wrap;html=1;" parent="gBmabcXSl3l0NfmqYwL5-61" vertex="1">
          <mxGeometry x="30" width="136" height="30" as="geometry">
            <mxRectangle width="136" height="30" as="alternateBounds" />
          </mxGeometry>
        </mxCell>
        <mxCell id="gBmabcXSl3l0NfmqYwL5-126" style="shape=tableRow;horizontal=0;startSize=0;swimlaneHead=0;swimlaneBody=0;fillColor=none;collapsible=0;dropTarget=0;points=[[0,0.5],[1,0.5]];portConstraint=eastwest;top=0;left=0;right=0;bottom=0;" parent="gBmabcXSl3l0NfmqYwL5-54" vertex="1">
          <mxGeometry y="120" width="166" height="30" as="geometry" />
        </mxCell>
        <mxCell id="gBmabcXSl3l0NfmqYwL5-127" style="shape=partialRectangle;connectable=0;fillColor=none;top=0;left=0;bottom=0;right=0;editable=1;overflow=hidden;whiteSpace=wrap;html=1;" parent="gBmabcXSl3l0NfmqYwL5-126" vertex="1">
          <mxGeometry width="30" height="30" as="geometry">
            <mxRectangle width="30" height="30" as="alternateBounds" />
          </mxGeometry>
        </mxCell>
        <mxCell id="gBmabcXSl3l0NfmqYwL5-128" value="Aula" style="shape=partialRectangle;connectable=0;fillColor=none;top=0;left=0;bottom=0;right=0;align=left;spacingLeft=6;overflow=hidden;whiteSpace=wrap;html=1;" parent="gBmabcXSl3l0NfmqYwL5-126" vertex="1">
          <mxGeometry x="30" width="136" height="30" as="geometry">
            <mxRectangle width="136" height="30" as="alternateBounds" />
          </mxGeometry>
        </mxCell>
        <mxCell id="gBmabcXSl3l0NfmqYwL5-123" style="shape=tableRow;horizontal=0;startSize=0;swimlaneHead=0;swimlaneBody=0;fillColor=none;collapsible=0;dropTarget=0;points=[[0,0.5],[1,0.5]];portConstraint=eastwest;top=0;left=0;right=0;bottom=0;" parent="gBmabcXSl3l0NfmqYwL5-54" vertex="1">
          <mxGeometry y="150" width="166" height="30" as="geometry" />
        </mxCell>
        <mxCell id="gBmabcXSl3l0NfmqYwL5-124" style="shape=partialRectangle;connectable=0;fillColor=none;top=0;left=0;bottom=0;right=0;editable=1;overflow=hidden;whiteSpace=wrap;html=1;" parent="gBmabcXSl3l0NfmqYwL5-123" vertex="1">
          <mxGeometry width="30" height="30" as="geometry">
            <mxRectangle width="30" height="30" as="alternateBounds" />
          </mxGeometry>
        </mxCell>
        <mxCell id="gBmabcXSl3l0NfmqYwL5-125" value="Note aggiuntive" style="shape=partialRectangle;connectable=0;fillColor=none;top=0;left=0;bottom=0;right=0;align=left;spacingLeft=6;overflow=hidden;whiteSpace=wrap;html=1;" parent="gBmabcXSl3l0NfmqYwL5-123" vertex="1">
          <mxGeometry x="30" width="136" height="30" as="geometry">
            <mxRectangle width="136" height="30" as="alternateBounds" />
          </mxGeometry>
        </mxCell>
        <mxCell id="gBmabcXSl3l0NfmqYwL5-64" value="Studenti" style="shape=table;startSize=30;container=1;collapsible=1;childLayout=tableLayout;fixedRows=1;rowLines=0;fontStyle=1;align=center;resizeLast=1;html=1;" parent="1" vertex="1">
          <mxGeometry x="258" y="830" width="166" height="240" as="geometry" />
        </mxCell>
        <mxCell id="gBmabcXSl3l0NfmqYwL5-65" value="" style="shape=tableRow;horizontal=0;startSize=0;swimlaneHead=0;swimlaneBody=0;fillColor=none;collapsible=0;dropTarget=0;points=[[0,0.5],[1,0.5]];portConstraint=eastwest;top=0;left=0;right=0;bottom=1;" parent="gBmabcXSl3l0NfmqYwL5-64" vertex="1">
          <mxGeometry y="30" width="166" height="30" as="geometry" />
        </mxCell>
        <mxCell id="gBmabcXSl3l0NfmqYwL5-66" value="PK" style="shape=partialRectangle;connectable=0;fillColor=none;top=0;left=0;bottom=0;right=0;fontStyle=1;overflow=hidden;whiteSpace=wrap;html=1;" parent="gBmabcXSl3l0NfmqYwL5-65" vertex="1">
          <mxGeometry width="30" height="30" as="geometry">
            <mxRectangle width="30" height="30" as="alternateBounds" />
          </mxGeometry>
        </mxCell>
        <mxCell id="gBmabcXSl3l0NfmqYwL5-67" value="id" style="shape=partialRectangle;connectable=0;fillColor=none;top=0;left=0;bottom=0;right=0;align=left;spacingLeft=6;fontStyle=5;overflow=hidden;whiteSpace=wrap;html=1;" parent="gBmabcXSl3l0NfmqYwL5-65" vertex="1">
          <mxGeometry x="30" width="136" height="30" as="geometry">
            <mxRectangle width="136" height="30" as="alternateBounds" />
          </mxGeometry>
        </mxCell>
        <mxCell id="gBmabcXSl3l0NfmqYwL5-147" style="shape=tableRow;horizontal=0;startSize=0;swimlaneHead=0;swimlaneBody=0;fillColor=none;collapsible=0;dropTarget=0;points=[[0,0.5],[1,0.5]];portConstraint=eastwest;top=0;left=0;right=0;bottom=0;" parent="gBmabcXSl3l0NfmqYwL5-64" vertex="1">
          <mxGeometry y="60" width="166" height="30" as="geometry" />
        </mxCell>
        <mxCell id="gBmabcXSl3l0NfmqYwL5-148" style="shape=partialRectangle;connectable=0;fillColor=none;top=0;left=0;bottom=0;right=0;editable=1;overflow=hidden;whiteSpace=wrap;html=1;" parent="gBmabcXSl3l0NfmqYwL5-147" vertex="1">
          <mxGeometry width="30" height="30" as="geometry">
            <mxRectangle width="30" height="30" as="alternateBounds" />
          </mxGeometry>
        </mxCell>
        <mxCell id="gBmabcXSl3l0NfmqYwL5-149" value="ID studente" style="shape=partialRectangle;connectable=0;fillColor=none;top=0;left=0;bottom=0;right=0;align=left;spacingLeft=6;overflow=hidden;whiteSpace=wrap;html=1;" parent="gBmabcXSl3l0NfmqYwL5-147" vertex="1">
          <mxGeometry x="30" width="136" height="30" as="geometry">
            <mxRectangle width="136" height="30" as="alternateBounds" />
          </mxGeometry>
        </mxCell>
        <mxCell id="gBmabcXSl3l0NfmqYwL5-71" value="" style="shape=tableRow;horizontal=0;startSize=0;swimlaneHead=0;swimlaneBody=0;fillColor=none;collapsible=0;dropTarget=0;points=[[0,0.5],[1,0.5]];portConstraint=eastwest;top=0;left=0;right=0;bottom=0;" parent="gBmabcXSl3l0NfmqYwL5-64" vertex="1">
          <mxGeometry y="90" width="166" height="30" as="geometry" />
        </mxCell>
        <mxCell id="gBmabcXSl3l0NfmqYwL5-72" value="" style="shape=partialRectangle;connectable=0;fillColor=none;top=0;left=0;bottom=0;right=0;editable=1;overflow=hidden;whiteSpace=wrap;html=1;" parent="gBmabcXSl3l0NfmqYwL5-71" vertex="1">
          <mxGeometry width="30" height="30" as="geometry">
            <mxRectangle width="30" height="30" as="alternateBounds" />
          </mxGeometry>
        </mxCell>
        <mxCell id="gBmabcXSl3l0NfmqYwL5-73" value="Nome" style="shape=partialRectangle;connectable=0;fillColor=none;top=0;left=0;bottom=0;right=0;align=left;spacingLeft=6;overflow=hidden;whiteSpace=wrap;html=1;" parent="gBmabcXSl3l0NfmqYwL5-71" vertex="1">
          <mxGeometry x="30" width="136" height="30" as="geometry">
            <mxRectangle width="136" height="30" as="alternateBounds" />
          </mxGeometry>
        </mxCell>
        <mxCell id="gBmabcXSl3l0NfmqYwL5-138" style="shape=tableRow;horizontal=0;startSize=0;swimlaneHead=0;swimlaneBody=0;fillColor=none;collapsible=0;dropTarget=0;points=[[0,0.5],[1,0.5]];portConstraint=eastwest;top=0;left=0;right=0;bottom=0;" parent="gBmabcXSl3l0NfmqYwL5-64" vertex="1">
          <mxGeometry y="120" width="166" height="30" as="geometry" />
        </mxCell>
        <mxCell id="gBmabcXSl3l0NfmqYwL5-139" style="shape=partialRectangle;connectable=0;fillColor=none;top=0;left=0;bottom=0;right=0;editable=1;overflow=hidden;whiteSpace=wrap;html=1;" parent="gBmabcXSl3l0NfmqYwL5-138" vertex="1">
          <mxGeometry width="30" height="30" as="geometry">
            <mxRectangle width="30" height="30" as="alternateBounds" />
          </mxGeometry>
        </mxCell>
        <mxCell id="gBmabcXSl3l0NfmqYwL5-140" value="Cognome" style="shape=partialRectangle;connectable=0;fillColor=none;top=0;left=0;bottom=0;right=0;align=left;spacingLeft=6;overflow=hidden;whiteSpace=wrap;html=1;" parent="gBmabcXSl3l0NfmqYwL5-138" vertex="1">
          <mxGeometry x="30" width="136" height="30" as="geometry">
            <mxRectangle width="136" height="30" as="alternateBounds" />
          </mxGeometry>
        </mxCell>
        <mxCell id="gBmabcXSl3l0NfmqYwL5-141" style="shape=tableRow;horizontal=0;startSize=0;swimlaneHead=0;swimlaneBody=0;fillColor=none;collapsible=0;dropTarget=0;points=[[0,0.5],[1,0.5]];portConstraint=eastwest;top=0;left=0;right=0;bottom=0;" parent="gBmabcXSl3l0NfmqYwL5-64" vertex="1">
          <mxGeometry y="150" width="166" height="30" as="geometry" />
        </mxCell>
        <mxCell id="gBmabcXSl3l0NfmqYwL5-142" style="shape=partialRectangle;connectable=0;fillColor=none;top=0;left=0;bottom=0;right=0;editable=1;overflow=hidden;whiteSpace=wrap;html=1;" parent="gBmabcXSl3l0NfmqYwL5-141" vertex="1">
          <mxGeometry width="30" height="30" as="geometry">
            <mxRectangle width="30" height="30" as="alternateBounds" />
          </mxGeometry>
        </mxCell>
        <mxCell id="gBmabcXSl3l0NfmqYwL5-143" value="Data di Nascita" style="shape=partialRectangle;connectable=0;fillColor=none;top=0;left=0;bottom=0;right=0;align=left;spacingLeft=6;overflow=hidden;whiteSpace=wrap;html=1;" parent="gBmabcXSl3l0NfmqYwL5-141" vertex="1">
          <mxGeometry x="30" width="136" height="30" as="geometry">
            <mxRectangle width="136" height="30" as="alternateBounds" />
          </mxGeometry>
        </mxCell>
        <mxCell id="gBmabcXSl3l0NfmqYwL5-135" style="shape=tableRow;horizontal=0;startSize=0;swimlaneHead=0;swimlaneBody=0;fillColor=none;collapsible=0;dropTarget=0;points=[[0,0.5],[1,0.5]];portConstraint=eastwest;top=0;left=0;right=0;bottom=0;" parent="gBmabcXSl3l0NfmqYwL5-64" vertex="1">
          <mxGeometry y="180" width="166" height="30" as="geometry" />
        </mxCell>
        <mxCell id="gBmabcXSl3l0NfmqYwL5-136" style="shape=partialRectangle;connectable=0;fillColor=none;top=0;left=0;bottom=0;right=0;editable=1;overflow=hidden;whiteSpace=wrap;html=1;" parent="gBmabcXSl3l0NfmqYwL5-135" vertex="1">
          <mxGeometry width="30" height="30" as="geometry">
            <mxRectangle width="30" height="30" as="alternateBounds" />
          </mxGeometry>
        </mxCell>
        <mxCell id="gBmabcXSl3l0NfmqYwL5-137" value="Corso frequentato" style="shape=partialRectangle;connectable=0;fillColor=none;top=0;left=0;bottom=0;right=0;align=left;spacingLeft=6;overflow=hidden;whiteSpace=wrap;html=1;" parent="gBmabcXSl3l0NfmqYwL5-135" vertex="1">
          <mxGeometry x="30" width="136" height="30" as="geometry">
            <mxRectangle width="136" height="30" as="alternateBounds" />
          </mxGeometry>
        </mxCell>
        <mxCell id="gBmabcXSl3l0NfmqYwL5-132" style="shape=tableRow;horizontal=0;startSize=0;swimlaneHead=0;swimlaneBody=0;fillColor=none;collapsible=0;dropTarget=0;points=[[0,0.5],[1,0.5]];portConstraint=eastwest;top=0;left=0;right=0;bottom=0;" parent="gBmabcXSl3l0NfmqYwL5-64" vertex="1">
          <mxGeometry y="210" width="166" height="30" as="geometry" />
        </mxCell>
        <mxCell id="gBmabcXSl3l0NfmqYwL5-133" style="shape=partialRectangle;connectable=0;fillColor=none;top=0;left=0;bottom=0;right=0;editable=1;overflow=hidden;whiteSpace=wrap;html=1;" parent="gBmabcXSl3l0NfmqYwL5-132" vertex="1">
          <mxGeometry width="30" height="30" as="geometry">
            <mxRectangle width="30" height="30" as="alternateBounds" />
          </mxGeometry>
        </mxCell>
        <mxCell id="gBmabcXSl3l0NfmqYwL5-134" value="Anno" style="shape=partialRectangle;connectable=0;fillColor=none;top=0;left=0;bottom=0;right=0;align=left;spacingLeft=6;overflow=hidden;whiteSpace=wrap;html=1;" parent="gBmabcXSl3l0NfmqYwL5-132" vertex="1">
          <mxGeometry x="30" width="136" height="30" as="geometry">
            <mxRectangle width="136" height="30" as="alternateBounds" />
          </mxGeometry>
        </mxCell>
        <mxCell id="gBmabcXSl3l0NfmqYwL5-74" value="esami" style="shape=table;startSize=30;container=1;collapsible=1;childLayout=tableLayout;fixedRows=1;rowLines=0;fontStyle=1;align=center;resizeLast=1;html=1;" parent="1" vertex="1">
          <mxGeometry x="630" y="830" width="166" height="180" as="geometry" />
        </mxCell>
        <mxCell id="gBmabcXSl3l0NfmqYwL5-75" value="" style="shape=tableRow;horizontal=0;startSize=0;swimlaneHead=0;swimlaneBody=0;fillColor=none;collapsible=0;dropTarget=0;points=[[0,0.5],[1,0.5]];portConstraint=eastwest;top=0;left=0;right=0;bottom=1;" parent="gBmabcXSl3l0NfmqYwL5-74" vertex="1">
          <mxGeometry y="30" width="166" height="30" as="geometry" />
        </mxCell>
        <mxCell id="gBmabcXSl3l0NfmqYwL5-76" value="PK" style="shape=partialRectangle;connectable=0;fillColor=none;top=0;left=0;bottom=0;right=0;fontStyle=1;overflow=hidden;whiteSpace=wrap;html=1;" parent="gBmabcXSl3l0NfmqYwL5-75" vertex="1">
          <mxGeometry width="30" height="30" as="geometry">
            <mxRectangle width="30" height="30" as="alternateBounds" />
          </mxGeometry>
        </mxCell>
        <mxCell id="gBmabcXSl3l0NfmqYwL5-77" value="id" style="shape=partialRectangle;connectable=0;fillColor=none;top=0;left=0;bottom=0;right=0;align=left;spacingLeft=6;fontStyle=5;overflow=hidden;whiteSpace=wrap;html=1;" parent="gBmabcXSl3l0NfmqYwL5-75" vertex="1">
          <mxGeometry x="30" width="136" height="30" as="geometry">
            <mxRectangle width="136" height="30" as="alternateBounds" />
          </mxGeometry>
        </mxCell>
        <mxCell id="gBmabcXSl3l0NfmqYwL5-78" value="" style="shape=tableRow;horizontal=0;startSize=0;swimlaneHead=0;swimlaneBody=0;fillColor=none;collapsible=0;dropTarget=0;points=[[0,0.5],[1,0.5]];portConstraint=eastwest;top=0;left=0;right=0;bottom=0;" parent="gBmabcXSl3l0NfmqYwL5-74" vertex="1">
          <mxGeometry y="60" width="166" height="30" as="geometry" />
        </mxCell>
        <mxCell id="gBmabcXSl3l0NfmqYwL5-79" value="" style="shape=partialRectangle;connectable=0;fillColor=none;top=0;left=0;bottom=0;right=0;editable=1;overflow=hidden;whiteSpace=wrap;html=1;" parent="gBmabcXSl3l0NfmqYwL5-78" vertex="1">
          <mxGeometry width="30" height="30" as="geometry">
            <mxRectangle width="30" height="30" as="alternateBounds" />
          </mxGeometry>
        </mxCell>
        <mxCell id="gBmabcXSl3l0NfmqYwL5-80" value="ID appello" style="shape=partialRectangle;connectable=0;fillColor=none;top=0;left=0;bottom=0;right=0;align=left;spacingLeft=6;overflow=hidden;whiteSpace=wrap;html=1;" parent="gBmabcXSl3l0NfmqYwL5-78" vertex="1">
          <mxGeometry x="30" width="136" height="30" as="geometry">
            <mxRectangle width="136" height="30" as="alternateBounds" />
          </mxGeometry>
        </mxCell>
        <mxCell id="gBmabcXSl3l0NfmqYwL5-81" value="" style="shape=tableRow;horizontal=0;startSize=0;swimlaneHead=0;swimlaneBody=0;fillColor=none;collapsible=0;dropTarget=0;points=[[0,0.5],[1,0.5]];portConstraint=eastwest;top=0;left=0;right=0;bottom=0;" parent="gBmabcXSl3l0NfmqYwL5-74" vertex="1">
          <mxGeometry y="90" width="166" height="30" as="geometry" />
        </mxCell>
        <mxCell id="gBmabcXSl3l0NfmqYwL5-82" value="" style="shape=partialRectangle;connectable=0;fillColor=none;top=0;left=0;bottom=0;right=0;editable=1;overflow=hidden;whiteSpace=wrap;html=1;" parent="gBmabcXSl3l0NfmqYwL5-81" vertex="1">
          <mxGeometry width="30" height="30" as="geometry">
            <mxRectangle width="30" height="30" as="alternateBounds" />
          </mxGeometry>
        </mxCell>
        <mxCell id="gBmabcXSl3l0NfmqYwL5-83" value="ID studente" style="shape=partialRectangle;connectable=0;fillColor=none;top=0;left=0;bottom=0;right=0;align=left;spacingLeft=6;overflow=hidden;whiteSpace=wrap;html=1;" parent="gBmabcXSl3l0NfmqYwL5-81" vertex="1">
          <mxGeometry x="30" width="136" height="30" as="geometry">
            <mxRectangle width="136" height="30" as="alternateBounds" />
          </mxGeometry>
        </mxCell>
        <mxCell id="gBmabcXSl3l0NfmqYwL5-153" style="shape=tableRow;horizontal=0;startSize=0;swimlaneHead=0;swimlaneBody=0;fillColor=none;collapsible=0;dropTarget=0;points=[[0,0.5],[1,0.5]];portConstraint=eastwest;top=0;left=0;right=0;bottom=0;" parent="gBmabcXSl3l0NfmqYwL5-74" vertex="1">
          <mxGeometry y="120" width="166" height="30" as="geometry" />
        </mxCell>
        <mxCell id="gBmabcXSl3l0NfmqYwL5-154" style="shape=partialRectangle;connectable=0;fillColor=none;top=0;left=0;bottom=0;right=0;editable=1;overflow=hidden;whiteSpace=wrap;html=1;" parent="gBmabcXSl3l0NfmqYwL5-153" vertex="1">
          <mxGeometry width="30" height="30" as="geometry">
            <mxRectangle width="30" height="30" as="alternateBounds" />
          </mxGeometry>
        </mxCell>
        <mxCell id="gBmabcXSl3l0NfmqYwL5-155" value="Data prenotazione" style="shape=partialRectangle;connectable=0;fillColor=none;top=0;left=0;bottom=0;right=0;align=left;spacingLeft=6;overflow=hidden;whiteSpace=wrap;html=1;" parent="gBmabcXSl3l0NfmqYwL5-153" vertex="1">
          <mxGeometry x="30" width="136" height="30" as="geometry">
            <mxRectangle width="136" height="30" as="alternateBounds" />
          </mxGeometry>
        </mxCell>
        <mxCell id="gBmabcXSl3l0NfmqYwL5-150" style="shape=tableRow;horizontal=0;startSize=0;swimlaneHead=0;swimlaneBody=0;fillColor=none;collapsible=0;dropTarget=0;points=[[0,0.5],[1,0.5]];portConstraint=eastwest;top=0;left=0;right=0;bottom=0;" parent="gBmabcXSl3l0NfmqYwL5-74" vertex="1">
          <mxGeometry y="150" width="166" height="30" as="geometry" />
        </mxCell>
        <mxCell id="gBmabcXSl3l0NfmqYwL5-151" style="shape=partialRectangle;connectable=0;fillColor=none;top=0;left=0;bottom=0;right=0;editable=1;overflow=hidden;whiteSpace=wrap;html=1;" parent="gBmabcXSl3l0NfmqYwL5-150" vertex="1">
          <mxGeometry width="30" height="30" as="geometry">
            <mxRectangle width="30" height="30" as="alternateBounds" />
          </mxGeometry>
        </mxCell>
        <mxCell id="gBmabcXSl3l0NfmqYwL5-152" value="Stato prenotazione" style="shape=partialRectangle;connectable=0;fillColor=none;top=0;left=0;bottom=0;right=0;align=left;spacingLeft=6;overflow=hidden;whiteSpace=wrap;html=1;" parent="gBmabcXSl3l0NfmqYwL5-150" vertex="1">
          <mxGeometry x="30" width="136" height="30" as="geometry">
            <mxRectangle width="136" height="30" as="alternateBounds" />
          </mxGeometry>
        </mxCell>
        <mxCell id="NQ9p5EZGxxE26IX7uBOS-1" value="" style="edgeStyle=entityRelationEdgeStyle;fontSize=12;html=1;endArrow=ERoneToMany;rounded=0;exitX=1;exitY=0.5;exitDx=0;exitDy=0;entryX=0.012;entryY=1;entryDx=0;entryDy=0;entryPerimeter=0;" edge="1" parent="1" source="gBmabcXSl3l0NfmqYwL5-5" target="gBmabcXSl3l0NfmqYwL5-31">
          <mxGeometry width="100" height="100" relative="1" as="geometry">
            <mxPoint x="360" y="260" as="sourcePoint" />
            <mxPoint x="460" y="160" as="targetPoint" />
          </mxGeometry>
        </mxCell>
        <mxCell id="NQ9p5EZGxxE26IX7uBOS-4" value="N" style="edgeLabel;html=1;align=center;verticalAlign=middle;resizable=0;points=[];" vertex="1" connectable="0" parent="NQ9p5EZGxxE26IX7uBOS-1">
          <mxGeometry x="0.8073" y="-5" relative="1" as="geometry">
            <mxPoint y="10" as="offset" />
          </mxGeometry>
        </mxCell>
        <mxCell id="NQ9p5EZGxxE26IX7uBOS-5" value="1" style="edgeLabel;html=1;align=center;verticalAlign=middle;resizable=0;points=[];" vertex="1" connectable="0" parent="NQ9p5EZGxxE26IX7uBOS-1">
          <mxGeometry x="-0.9277" y="-2" relative="1" as="geometry">
            <mxPoint y="13" as="offset" />
          </mxGeometry>
        </mxCell>
        <mxCell id="NQ9p5EZGxxE26IX7uBOS-10" value="" style="edgeStyle=entityRelationEdgeStyle;fontSize=12;html=1;endArrow=ERoneToMany;rounded=0;exitX=1;exitY=0.5;exitDx=0;exitDy=0;entryX=0;entryY=0.5;entryDx=0;entryDy=0;" edge="1" parent="1" source="gBmabcXSl3l0NfmqYwL5-31" target="gBmabcXSl3l0NfmqYwL5-38">
          <mxGeometry width="100" height="100" relative="1" as="geometry">
            <mxPoint x="410" y="360" as="sourcePoint" />
            <mxPoint x="780" y="380" as="targetPoint" />
          </mxGeometry>
        </mxCell>
        <mxCell id="NQ9p5EZGxxE26IX7uBOS-14" value="" style="edgeStyle=entityRelationEdgeStyle;fontSize=12;html=1;endArrow=ERmany;startArrow=ERmany;rounded=0;entryX=0;entryY=0.5;entryDx=0;entryDy=0;exitX=1;exitY=0.5;exitDx=0;exitDy=0;" edge="1" parent="1" source="gBmabcXSl3l0NfmqYwL5-51" target="gBmabcXSl3l0NfmqYwL5-102">
          <mxGeometry width="100" height="100" relative="1" as="geometry">
            <mxPoint x="490" y="440" as="sourcePoint" />
            <mxPoint x="510" y="430" as="targetPoint" />
          </mxGeometry>
        </mxCell>
        <mxCell id="NQ9p5EZGxxE26IX7uBOS-15" value="" style="edgeStyle=entityRelationEdgeStyle;fontSize=12;html=1;endArrow=ERoneToMany;rounded=0;entryX=1;entryY=0.5;entryDx=0;entryDy=0;exitX=-0.01;exitY=0.156;exitDx=0;exitDy=0;exitPerimeter=0;" edge="1" parent="1" source="gBmabcXSl3l0NfmqYwL5-105" target="gBmabcXSl3l0NfmqYwL5-58">
          <mxGeometry width="100" height="100" relative="1" as="geometry">
            <mxPoint x="250" y="510" as="sourcePoint" />
            <mxPoint x="270" y="630" as="targetPoint" />
          </mxGeometry>
        </mxCell>
        <mxCell id="NQ9p5EZGxxE26IX7uBOS-16" value="" style="edgeStyle=entityRelationEdgeStyle;fontSize=12;html=1;endArrow=ERoneToMany;rounded=0;entryX=0;entryY=0.5;entryDx=0;entryDy=0;exitX=1.019;exitY=0.822;exitDx=0;exitDy=0;exitPerimeter=0;" edge="1" parent="1" source="gBmabcXSl3l0NfmqYwL5-126" target="gBmabcXSl3l0NfmqYwL5-71">
          <mxGeometry width="100" height="100" relative="1" as="geometry">
            <mxPoint x="194" y="705" as="sourcePoint" />
            <mxPoint x="508" y="700" as="targetPoint" />
          </mxGeometry>
        </mxCell>
        <mxCell id="NQ9p5EZGxxE26IX7uBOS-17" value="" style="edgeStyle=entityRelationEdgeStyle;fontSize=12;html=1;endArrow=ERoneToMany;rounded=0;entryX=1;entryY=0.5;entryDx=0;entryDy=0;exitX=0;exitY=0.5;exitDx=0;exitDy=0;" edge="1" parent="1" source="gBmabcXSl3l0NfmqYwL5-81" target="gBmabcXSl3l0NfmqYwL5-71">
          <mxGeometry width="100" height="100" relative="1" as="geometry">
            <mxPoint x="570" y="850" as="sourcePoint" />
            <mxPoint x="508" y="620" as="targetPoint" />
          </mxGeometry>
        </mxCell>
        <mxCell id="NQ9p5EZGxxE26IX7uBOS-18" value="" style="edgeStyle=entityRelationEdgeStyle;fontSize=12;html=1;endArrow=ERmandOne;startArrow=ERmandOne;rounded=0;exitX=1;exitY=0.5;exitDx=0;exitDy=0;entryX=0;entryY=0.5;entryDx=0;entryDy=0;" edge="1" parent="1" source="gBmabcXSl3l0NfmqYwL5-65" target="gBmabcXSl3l0NfmqYwL5-105">
          <mxGeometry width="100" height="100" relative="1" as="geometry">
            <mxPoint x="350" y="710" as="sourcePoint" />
            <mxPoint x="510" y="430" as="targetPoint" />
          </mxGeometry>
        </mxCell>
      </root>
    </mxGraphModel>
  </diagram>
</mxfile>
